<?xml version="1.0" encoding="utf-8"?>
<!-- Svg Vector Icons : http://www.onlinewebfonts.com/icon -->
<!DOCTYPE svg PUBLIC "-//W3C//DTD SVG 1.1//EN" "http://www.w3.org/Graphics/SVG/1.1/DTD/svg11.dtd">
<svg version="1.1" xmlns="http://www.w3.org/2000/svg" xmlns:xlink="http://www.w3.org/1999/xlink" x="0px" y="0px" viewBox="0 0 256 256" enable-background="new 0 0 256 256" xml:space="preserve">
<metadata> Svg Vector Icons : http://www.onlinewebfonts.com/icon </metadata>
<g><g><g><path fill="#000000" d="M118.1,10.5c-9.4,1.1-19,3.9-27.7,8.3c-19.1,9.5-32.3,26-35.5,44.6c-0.4,2.1-0.7,4.3-0.7,4.8c0,0.7-0.5,1.2-1.7,1.6c-6.1,2.1-11.1,8-12.5,14.7c-0.8,3.8-0.7,32.8,0.1,35.9c1.6,5.9,5.3,10.6,10.3,13.1c2.6,1.3,3.7,1.6,7.2,1.8l4.1,0.2l0.3,2.4c0.8,6.8,4.1,13,8.3,15.9c4.2,3,5.7,3.3,14.8,3.5l8.2,0.2l2,2.3c1.2,1.3,3.2,3.3,4.6,4.4l2.5,2l-1.3,3c-2.9,6.5-9,13.6-13.6,16c-1.2,0.6-5,1.7-8.4,2.4c-19.4,3.9-37.4,10.4-45.8,16.6c-5.7,4.1-7.9,12.2-8.5,30l-0.3,9.3l1.2,1.2L27,246h101h101l1.2-1.2l1.2-1.2l-0.3-9.3c-0.4-13.4-1.8-20.8-4.8-26c-3.9-6.8-24.8-15.5-48.3-20.4c-4.1-0.8-8.3-1.9-9.4-2.4c-4.9-2.3-11.6-10.3-14.6-17.4l-0.7-1.7l2.8-2.3c7.7-6.2,17.3-20.7,22.1-33.5l1.5-4l1,2.1c1.4,2.9,3.1,4.5,5.9,5.7c2.1,0.9,2.9,1,9,0.8c6.3-0.1,6.9-0.2,9.5-1.5c5.1-2.5,9-7.4,10.6-13.5c1-3.8,1-32.4,0-36.2c-1.8-6.9-6.3-12.1-12.3-14.2c-1.7-0.6-1.7-0.6-2.2-4.5c-2.7-19.5-16-36.9-35.8-46.7c-6.7-3.3-11.7-5.1-18.7-6.7C137.7,10.1,127.2,9.5,118.1,10.5z M140.3,16.6c18.9,3.1,34.9,12.6,44.9,26.6c4.3,6.1,8,15.7,9,23.2l0.3,2.4h-2.7c-1.5,0-3.6,0.3-4.6,0.6c-2.1,0.7-2.1,0.7-2.6-1.5c-0.6-2.6-3.9-11.1-5.6-14.3c-2.2-4.1-7-10.4-10.4-13.6C160.8,33,152,28.5,140.9,26c-6.3-1.4-18.8-1.5-24.8-0.2c-17.3,3.7-31.2,13.6-38.7,27.5c-2,3.8-5.3,12.2-5.8,14.9c-0.2,0.9-0.5,1.8-0.6,1.9c-0.2,0.1-1.2-0.1-2.2-0.5c-1-0.4-3-0.6-4.4-0.7c-3.1,0-3,0.3-2-5.1c5-28.5,34.4-49.3,68-48.1C133.6,15.9,138,16.3,140.3,16.6z M136.3,32.7c11.6,1.8,21.5,6.8,29.1,14.9c4,4.2,5.5,6.5,8.3,12.4c4.4,9.1,5.7,17,5.3,31.5c-0.3,14.9-2.1,23.2-8.2,37.8c-5.3,12.9-12.7,23.7-20.4,29.9c-4.8,3.9-5.4,4.5-5.4,6c0,1.8,4.7,11.1,8.1,15.7c5.7,7.9,11.4,11.8,19.8,13.4c7.7,1.5,19.1,4.5,25.8,6.8c6.8,2.3,17.1,7.2,19.7,9.3c3,2.5,4.6,9.1,5.2,22l0.3,6.1H128H32.1v-2c0-4.1,1-15,1.7-18.3c0.9-4.2,2-6.5,4-8c7.6-5.8,24.9-11.9,44.2-15.8c7.7-1.5,11.3-3.3,16-8c4.1-4.1,8-9.8,10.9-16c3-6.4,3-6.6-2.5-10.7l-3-2.3l13.7-0.2c12.9-0.2,13.7-0.3,14.9-1.2c2.4-1.8,3.2-3.3,3.2-6.2c0-2.9-0.7-4.4-3.2-6.2c-1.1-0.8-2.1-1-6.6-1.1c-3.1-0.1-6.1,0-7.1,0.3c-2.1,0.6-4.4,3.2-4.8,5.3l-0.3,1.6l-8.3-0.1l-8.3-0.1l-2.7-3.9c-2.9-4.3-7.5-13.1-9.4-18.2c-0.6-1.8-1.8-4.9-2.6-6.9c-5.1-13.6-6.6-34.5-3.6-48.7c3.8-18.3,16-32,33.2-37.5C119.1,32.2,128.1,31.5,136.3,32.7z M67.7,77.7L69,79v23.1v23.1l-1.3,1.3c-1.3,1.3-1.4,1.3-6.7,1.3c-4.3,0-5.7-0.2-7.1-0.9c-2.4-1.2-4.6-3.5-5.8-6c-0.9-2-1-2.9-1.1-17.9c-0.1-18.2,0-19.2,3.2-22.9c2.9-3.3,4.6-3.9,10.9-3.9C66.2,76.3,66.3,76.3,67.7,77.7z M202,77.2c2.6,1.2,5.6,4.7,6.5,7.6c0.6,1.8,0.7,5.4,0.7,17.4c0,17.1-0.2,18.3-3.4,21.9c-2.8,3.2-4.6,3.8-10.8,3.8c-5.2,0-5.3,0-6.6-1.3l-1.3-1.3v-23.1V79l1.3-1.3c1.3-1.3,1.4-1.3,6.6-1.3C199,76.3,200.6,76.6,202,77.2z M77.5,130.1c1.6,4.5,5.1,11.8,7.8,16.3l2.1,3.5l-3.5,0.1c-9.1,0.4-13-3.3-14.6-13.9c-0.2-1.1,0-1.5,1.5-2.4c2-1.3,3.9-3.6,4.7-5.7c0.3-0.8,0.6-1.5,0.6-1.5C76.2,126.6,76.8,128.2,77.5,130.1z"/></g></g></g>
</svg>