<svg version="1.1" xmlns="http://www.w3.org/2000/svg" xmlns:xlink="http://www.w3.org/1999/xlink" x="0px" y="0px"
	 viewBox="0 0 32.84 32.84" style="enable-background:new 0 0 32.84 32.84;" xml:space="preserve">
<style type="text/css">
	.st0{opacity:0.7686;fill:#FE285B;}
	.st1{fill:#FFFFFF;}
	.st2{fill:none;stroke:#FE285B;}
	.st3{fill:none;stroke:#869DB4;}
	.st4{fill:#FE285B;}
	.st5{fill:#F01E50;}
	.st6{fill:#80003D;}
	.st7{fill:#232323;}
	.st8{fill:#5A5A5A;}
	.st9{fill:#C8C8C8;}
	.st10{fill:#F0F0F0;}
	.st11{fill:#869DB4;}
	.st12{fill:#FAF7F1;}
	.st13{fill:none;stroke:#000000;stroke-miterlimit:10;}
	.st14{fill:none;stroke:#FE285B;stroke-miterlimit:10;}
	.st15{fill:none;stroke:#FE285B;stroke-linecap:round;stroke-linejoin:round;}
	.st16{fill:none;stroke:#FE285B;stroke-linecap:round;}
	.st17{fill:none;stroke:#FFFFFF;stroke-linecap:round;stroke-linejoin:round;}
	.st18{fill:none;stroke:#FFFFFF;stroke-linecap:round;}
	.st19{fill:none;stroke:#FFFFFF;}
	.st20{fill:none;stroke:#000000;stroke-linecap:round;stroke-linejoin:round;}
	.st21{fill:none;stroke:#000000;stroke-linecap:round;}
	.st22{fill:none;stroke:#F01E50;stroke-linecap:round;stroke-linejoin:round;}
	.st23{fill:none;stroke:#F01E50;stroke-linecap:round;}
	.st24{fill:none;stroke:#FE285B;stroke-width:2;stroke-linecap:round;stroke-linejoin:round;}
	.st25{fill:none;stroke:#FE285B;stroke-width:2;stroke-linecap:round;}
	.st26{fill:none;stroke:#FFFFFF;stroke-width:2;stroke-linecap:round;stroke-linejoin:round;}
	.st27{fill:none;stroke:#FFFFFF;stroke-width:2;stroke-linecap:round;}
	.st28{fill:none;stroke:#000000;stroke-width:3;stroke-linecap:round;stroke-linejoin:round;}
	.st29{fill:none;stroke:#FFFFFF;stroke-width:3;stroke-linecap:round;}
	.st30{fill:none;stroke:#F01E50;stroke-width:2;stroke-linecap:round;}
	.st31{fill:none;stroke:#FFFFFF;stroke-width:3;stroke-linecap:round;stroke-linejoin:round;}
	.st32{fill:none;stroke:#F01E50;stroke-width:2;stroke-linecap:round;stroke-linejoin:round;}
	.st33{fill:none;stroke:#4F4F4F;stroke-width:3;}
	.st34{display:none;}
	.st35{display:inline;fill:none;stroke:#FF00FF;stroke-width:0.25;stroke-linecap:round;stroke-linejoin:round;}
	.st36{display:inline;}
	.st37{fill:none;stroke:#FF00FF;stroke-width:0.25;stroke-linecap:round;stroke-linejoin:round;}
</style>
<g id="Capa_1">
	<g>
		<g>
			<path class="st1" d="M13.38,3c1.39,0,2.69,0.26,3.97,0.79c1.28,0.53,2.39,1.27,3.37,2.25c0.98,0.98,1.72,2.08,2.25,3.37
				c0.52,1.26,0.79,2.6,0.79,3.97c0,1.37-0.27,2.71-0.79,3.97c-0.53,1.28-1.27,2.39-2.25,3.37c-0.98,0.98-2.08,1.72-3.37,2.25
				c-1.28,0.53-2.58,0.79-3.97,0.79c-1.39,0-2.69-0.26-3.97-0.79c-1.28-0.53-2.39-1.27-3.37-2.25c-0.98-0.98-1.72-2.08-2.25-3.37
				C3.27,16.09,3,14.75,3,13.38c0-1.37,0.27-2.71,0.79-3.97c0.53-1.28,1.27-2.39,2.25-3.37c0.98-0.98,2.08-1.72,3.37-2.25
				C10.69,3.26,11.99,3,13.38,3 M13.38,0C11.61,0,9.9,0.34,8.26,1.02C6.62,1.7,5.17,2.67,3.92,3.92c-1.25,1.25-2.22,2.7-2.9,4.34
				C0.34,9.9,0,11.61,0,13.38c0,1.77,0.34,3.48,1.02,5.12c0.68,1.64,1.65,3.09,2.9,4.34c1.25,1.25,2.7,2.22,4.34,2.9
				c1.64,0.68,3.35,1.02,5.12,1.02c1.77,0,3.48-0.34,5.12-1.02c1.64-0.68,3.09-1.65,4.34-2.9c1.25-1.25,2.22-2.7,2.9-4.34
				c0.68-1.64,1.02-3.34,1.02-5.12c0-1.77-0.34-3.48-1.02-5.12c-0.68-1.64-1.65-3.09-2.9-4.34c-1.25-1.25-2.7-2.22-4.34-2.9
				S15.15,0,13.38,0L13.38,0z"/>
		</g>
		<line class="st29" x1="22.96" y1="22.96" x2="31.34" y2="31.34"/>
	</g>
</g>
<g id="Capa_2" class="st34">
</g>
</svg>
