<?xml version="1.0" encoding="utf-8"?>
<!-- Generator: Adobe Illustrator 24.1.0, SVG Export Plug-In . SVG Version: 6.00 Build 0)  -->
<svg version="1.1" xmlns="http://www.w3.org/2000/svg" xmlns:xlink="http://www.w3.org/1999/xlink" x="0px" y="0px"
	 viewBox="0 0 34.34 34.34" style="enable-background:new 0 0 34.34 34.34;" xml:space="preserve">
<style type="text/css">
	.st0{opacity:0.7686;fill:#FE285B;}
	.st1{fill:#FFFFFF;}
	.st2{fill:none;stroke:#FE285B;}
	.st3{fill:none;stroke:#869DB4;}
	.st4{fill:#FE285B;}
	.st5{fill:#F01E50;}
	.st6{fill:#80003D;}
	.st7{fill:#232323;}
	.st8{fill:#5A5A5A;}
	.st9{fill:#C8C8C8;}
	.st10{fill:#F0F0F0;}
	.st11{fill:#869DB4;}
	.st12{fill:#FAF7F1;}
	.st13{fill:none;stroke:#000000;stroke-miterlimit:10;}
	.st14{fill:none;stroke:#FE285B;stroke-miterlimit:10;}
	.st15{fill:none;stroke:#FE285B;stroke-linecap:round;stroke-linejoin:round;}
	.st16{fill:none;stroke:#FE285B;stroke-linecap:round;}
	.st17{fill:none;stroke:#FFFFFF;stroke-linecap:round;stroke-linejoin:round;}
	.st18{fill:none;stroke:#FFFFFF;stroke-linecap:round;}
	.st19{fill:none;stroke:#FFFFFF;}
	.st20{fill:none;stroke:#000000;stroke-linecap:round;stroke-linejoin:round;}
	.st21{fill:none;stroke:#000000;stroke-linecap:round;}
	.st22{fill:none;stroke:#F01E50;stroke-linecap:round;stroke-linejoin:round;}
	.st23{fill:none;stroke:#F01E50;stroke-linecap:round;}
	.st24{fill:none;stroke:#FE285B;stroke-width:2;stroke-linecap:round;stroke-linejoin:round;}
	.st25{fill:none;stroke:#FE285B;stroke-width:2;stroke-linecap:round;}
	.st26{fill:none;stroke:#FFFFFF;stroke-width:2;stroke-linecap:round;stroke-linejoin:round;}
	.st27{fill:none;stroke:#FFFFFF;stroke-width:2;stroke-linecap:round;}
	.st28{fill:none;stroke:#F01E50;stroke-width:3;stroke-linecap:round;stroke-linejoin:round;}
	.st29{fill:none;stroke:#000000;stroke-width:3;stroke-linecap:round;stroke-linejoin:round;}
	.st30{fill:none;stroke:#FFFFFF;stroke-width:3;stroke-linecap:round;}
	.st31{fill:none;stroke:#F01E50;stroke-width:2;stroke-linecap:round;}
	.st32{fill:none;stroke:#FFFFFF;stroke-width:3;stroke-linecap:round;stroke-linejoin:round;}
	.st33{fill:none;stroke:#F01E50;stroke-width:2;stroke-linecap:round;stroke-linejoin:round;}
	.st34{fill:none;stroke:#4F4F4F;stroke-width:3;}
	.st35{display:none;}
	.st36{display:inline;fill:none;stroke:#FF00FF;stroke-width:0.25;stroke-linecap:round;stroke-linejoin:round;}
	.st37{display:inline;}
	.st38{fill:none;stroke:#FF00FF;stroke-width:0.25;stroke-linecap:round;stroke-linejoin:round;}
</style>
<g id="Capa_1">
	<g>
		<path class="st28" d="M14.88,1.5c1.77,0,3.48,0.34,5.12,1.02s3.09,1.65,4.34,2.9c1.25,1.25,2.22,2.7,2.9,4.34
			c0.68,1.64,1.02,3.34,1.02,5.12c0,1.77-0.34,3.48-1.02,5.12c-0.68,1.64-1.65,3.09-2.9,4.34c-1.25,1.25-2.7,2.22-4.34,2.9
			c-1.64,0.68-3.35,1.02-5.12,1.02c-1.77,0-3.48-0.34-5.12-1.02c-1.64-0.68-3.09-1.65-4.34-2.9c-1.25-1.25-2.22-2.7-2.9-4.34
			c-0.68-1.64-1.02-3.34-1.02-5.12c0-1.77,0.34-3.48,1.02-5.12c0.68-1.64,1.65-3.09,2.9-4.34c1.25-1.25,2.7-2.22,4.34-2.9
			S13.11,1.5,14.88,1.5z"/>
		<line class="st28" x1="24.46" y1="24.46" x2="32.84" y2="32.84"/>
	</g>
</g>
<g id="Capa_2" class="st35">
</g>
</svg>
