<svg version="1.1" xmlns="http://www.w3.org/2000/svg" xmlns:xlink="http://www.w3.org/1999/xlink" x="0px" y="0px"
	 viewBox="0 0 36.79 36.79" style="enable-background:new 0 0 36.79 36.79;" xml:space="preserve">
<style type="text/css">
	.st0{opacity:0.7686;fill:#FE285B;}
	.st1{fill:#FFFFFF;}
	.st2{fill:none;stroke:#FE285B;}
	.st3{fill:none;stroke:#869DB4;}
	.st4{fill:#FE285B;}
	.st5{fill:#F01E50;}
	.st6{fill:#80003D;}
	.st7{fill:#232323;}
	.st8{fill:#5A5A5A;}
	.st9{fill:#C8C8C8;}
	.st10{fill:#F0F0F0;}
	.st11{fill:#869DB4;}
	.st12{fill:#FAF7F1;}
	.st13{fill:none;stroke:#000000;stroke-miterlimit:10;}
	.st14{fill:none;stroke:#FE285B;stroke-miterlimit:10;}
	.st15{fill:none;stroke:#FE285B;stroke-linecap:round;stroke-linejoin:round;}
	.st16{fill:none;stroke:#FE285B;stroke-linecap:round;}
	.st17{fill:none;stroke:#FFFFFF;stroke-linecap:round;stroke-linejoin:round;}
	.st18{fill:none;stroke:#FFFFFF;stroke-linecap:round;}
	.st19{fill:none;stroke:#FFFFFF;}
	.st20{fill:none;stroke:#000000;stroke-linecap:round;stroke-linejoin:round;}
	.st21{fill:none;stroke:#000000;stroke-linecap:round;}
	.st22{fill:none;stroke:#F01E50;stroke-linecap:round;stroke-linejoin:round;}
	.st23{fill:none;stroke:#F01E50;stroke-linecap:round;}
	.st24{fill:none;stroke:#FE285B;stroke-width:2;stroke-linecap:round;stroke-linejoin:round;}
	.st25{fill:none;stroke:#FE285B;stroke-width:2;stroke-linecap:round;}
	.st26{fill:none;stroke:#FFFFFF;stroke-width:2;stroke-linecap:round;stroke-linejoin:round;}
	.st27{fill:none;stroke:#FFFFFF;stroke-width:2;stroke-linecap:round;}
	.st28{fill:none;stroke:#000000;stroke-width:3;stroke-linecap:round;stroke-linejoin:round;}
	.st29{fill:none;stroke:#FFFFFF;stroke-width:3;stroke-linecap:round;}
	.st30{fill:none;stroke:#F01E50;stroke-width:2;stroke-linecap:round;}
	.st31{fill:none;stroke:#FFFFFF;stroke-width:3;stroke-linecap:round;stroke-linejoin:round;}
	.st32{fill:none;stroke:#F01E50;stroke-width:2;stroke-linecap:round;stroke-linejoin:round;}
	.st33{fill:none;stroke:#4F4F4F;stroke-width:3;}
	.st34{display:none;}
	.st35{display:inline;fill:none;stroke:#FF00FF;stroke-width:0.25;stroke-linecap:round;stroke-linejoin:round;}
	.st36{display:inline;}
	.st37{fill:none;stroke:#FF00FF;stroke-width:0.25;stroke-linecap:round;stroke-linejoin:round;}
</style>
<g id="Capa_1">
	<path class="st28" d="M35.29,26.8v5.09c0,0.95-0.4,1.87-1.1,2.51c-0.71,0.65-1.65,0.97-2.6,0.88c-5.23-0.57-10.25-2.35-14.66-5.21
		C12.82,27.47,9.34,24,6.73,19.9c-2.87-4.42-4.66-9.46-5.22-14.7C1.43,4.25,1.75,3.31,2.39,2.6S3.94,1.5,4.9,1.5h5.1
		c1.71-0.02,3.16,1.23,3.4,2.92c0.22,1.63,0.61,3.23,1.19,4.77c0.47,1.24,0.17,2.64-0.76,3.58l-2.16,2.15
		c2.42,4.25,5.94,7.76,10.2,10.18l2.16-2.15c0.94-0.93,2.34-1.23,3.59-0.76c1.54,0.57,3.14,0.97,4.77,1.19
		C34.08,23.6,35.34,25.08,35.29,26.8L35.29,26.8z"/>
</g>
<g id="Capa_2" class="st34">
</g>
</svg>
