<svg version="1.1" xmlns="http://www.w3.org/2000/svg" xmlns:xlink="http://www.w3.org/1999/xlink" x="0px" y="0px"
	 viewBox="0 0 33.79 33.79" style="enable-background:new 0 0 33.79 33.79;" xml:space="preserve">
<style type="text/css">
	.st0{opacity:0.7686;fill:#FE285B;}
	.st1{fill:#FFFFFF;}
	.st2{fill:none;stroke:#FE285B;}
	.st3{fill:none;stroke:#869DB4;}
	.st4{fill:#FE285B;}
	.st5{fill:#F01E50;}
	.st6{fill:#80003D;}
	.st7{fill:#232323;}
	.st8{fill:#5A5A5A;}
	.st9{fill:#C8C8C8;}
	.st10{fill:#F0F0F0;}
	.st11{fill:#869DB4;}
	.st12{fill:#FAF7F1;}
	.st13{fill:none;stroke:#000000;stroke-miterlimit:10;}
	.st14{fill:none;stroke:#FE285B;stroke-miterlimit:10;}
	.st15{fill:none;stroke:#FE285B;stroke-linecap:round;stroke-linejoin:round;}
	.st16{fill:none;stroke:#FE285B;stroke-linecap:round;}
	.st17{fill:none;stroke:#FFFFFF;stroke-linecap:round;stroke-linejoin:round;}
	.st18{fill:none;stroke:#FFFFFF;stroke-linecap:round;}
	.st19{fill:none;stroke:#FFFFFF;}
	.st20{fill:none;stroke:#000000;stroke-linecap:round;stroke-linejoin:round;}
	.st21{fill:none;stroke:#000000;stroke-linecap:round;}
	.st22{fill:none;stroke:#F01E50;stroke-linecap:round;stroke-linejoin:round;}
	.st23{fill:none;stroke:#F01E50;stroke-linecap:round;}
	.st24{fill:none;stroke:#FE285B;stroke-width:2;stroke-linecap:round;stroke-linejoin:round;}
	.st25{fill:none;stroke:#FE285B;stroke-width:2;stroke-linecap:round;}
	.st26{fill:none;stroke:#FFFFFF;stroke-width:2;stroke-linecap:round;stroke-linejoin:round;}
	.st27{fill:none;stroke:#FFFFFF;stroke-width:2;stroke-linecap:round;}
	.st28{fill:none;stroke:#000000;stroke-width:3;stroke-linecap:round;stroke-linejoin:round;}
	.st29{fill:none;stroke:#FFFFFF;stroke-width:3;stroke-linecap:round;}
	.st30{fill:none;stroke:#F01E50;stroke-width:2;stroke-linecap:round;}
	.st31{fill:none;stroke:#FFFFFF;stroke-width:3;stroke-linecap:round;stroke-linejoin:round;}
	.st32{fill:none;stroke:#F01E50;stroke-width:2;stroke-linecap:round;stroke-linejoin:round;}
	.st33{fill:none;stroke:#4F4F4F;stroke-width:3;}
	.st34{display:none;}
	.st35{display:inline;fill:none;stroke:#FF00FF;stroke-width:0.25;stroke-linecap:round;stroke-linejoin:round;}
	.st36{display:inline;}
	.st37{fill:none;stroke:#FF00FF;stroke-width:0.25;stroke-linecap:round;stroke-linejoin:round;}
</style>
<g id="Capa_1">
	<g>
		<path class="st1" d="M8.53,0v3c0.2,0,0.36,0.14,0.39,0.31c0.24,1.85,0.7,3.68,1.36,5.43c0.05,0.14,0.02,0.3-0.08,0.4l-2.16,2.15
			c-0.96,0.96-1.16,2.43-0.49,3.61c2.69,4.72,6.6,8.62,11.32,11.3c0.46,0.26,0.97,0.39,1.48,0.39c0.78,0,1.54-0.3,2.12-0.88
			l2.15-2.14c0.1-0.1,0.22-0.12,0.28-0.12c0.05,0,0.1,0.01,0.15,0.03c1.75,0.65,3.57,1.11,5.4,1.35c0.2,0.03,0.35,0.2,0.34,0.4
			c0,0.02,0,0.05,0,0.07v5.1c0,0.11-0.05,0.21-0.13,0.29c-0.07,0.07-0.16,0.1-0.3,0.1c0,0,0,0,0,0c-4.72-0.52-9.32-2.16-13.33-4.75
			c-3.71-2.35-6.92-5.55-9.29-9.28C5.14,12.76,3.5,8.13,3,3.43c-0.01-0.11,0.03-0.22,0.1-0.3C3.18,3.05,3.28,3,3.4,3l5.13,0L8.53,0
			 M8.53,0C8.52,0,8.5,0,8.49,0H3.4C2.44,0,1.53,0.4,0.89,1.1C0.25,1.81-0.07,2.75,0.01,3.7c0.56,5.24,2.34,10.28,5.22,14.7
			c2.61,4.1,6.09,7.57,10.2,10.18c4.41,2.86,9.44,4.64,14.66,5.21c0.1,0.01,0.2,0.01,0.31,0.01c0.85,0,1.67-0.32,2.3-0.89
			c0.7-0.65,1.1-1.56,1.1-2.51V25.3c0.04-1.72-1.21-3.2-2.92-3.44c-1.63-0.22-3.23-0.61-4.77-1.19c-0.39-0.15-0.79-0.22-1.2-0.22
			c-0.88,0-1.74,0.34-2.39,0.98l-2.16,2.15c-4.25-2.41-7.78-5.93-10.2-10.18l2.16-2.15c0.93-0.94,1.23-2.34,0.76-3.58
			c-0.58-1.54-0.97-3.14-1.19-4.77C11.65,1.24,10.22,0,8.53,0L8.53,0z"/>
	</g>
</g>
<g id="Capa_2" class="st34">
</g>
</svg>
