<svg version="1.1"  class="logo logo-dark" xmlns="http://www.w3.org/2000/svg" xmlns:xlink="http://www.w3.org/1999/xlink" x="0px" y="0px"
	 viewBox="0 0 459.5 170.08" style="enable-background:new 0 0 459.5 170.08;" xml:space="preserve">
<style type="text/css">
	.st0{opacity:0.7686;fill:#FE285B;}
	.st1{fill:#FFFFFF;}
	.st2{fill:none;stroke:#FE285B;}
	.st3{fill:none;stroke:#869DB4;}
	.st4{fill:#FE285B;}
</style>
<g>
	<path d="M412.23,154.42l-0.16,0.27c-1.18,2.02-2.33,3.77-3.43,5.2c-1.09,1.42-2.24,2.63-3.39,3.61c-1.15,0.96-2.36,1.72-3.6,2.25
		c-1.24,0.53-2.62,0.89-4.1,1.08c-1.35,0.19-2.66,0.3-3.91,0.35c-1.26,0.05-2.28,0.07-3.08,0.07c-1.87,0-3.62-0.14-5.2-0.42
		c-1.47-0.26-2.43-0.69-2.79-1.25c-0.39-0.6-0.64-1.56-0.76-2.84c-0.12-1.32-0.2-2.76-0.25-4.28c0-0.48-0.02-1.07-0.05-1.77
		c-0.03-0.68-0.05-1.4-0.05-2.15v-8.55c0-1.06,0.04-1.9,0.14-2.52h2.93c0.47,0,0.94,0.01,1.41,0.03c0.47,0.03,1.06,0.06,1.77,0.11
		c1.37,0.09,2.59,0.35,3.61,0.76c1.03,0.41,1.91,0.94,2.62,1.56c0.81,0.77,1.61,1.95,2.37,3.52c0.76,1.58,1.35,3.14,1.72,4.62
		l0.07,0.31h1.58v-23.26h-1.59l-0.06,0.32c-0.28,1.32-0.6,2.52-0.95,3.56c-0.34,1.02-0.8,1.93-1.37,2.7
		c-0.56,0.76-1.29,1.42-2.19,1.96c-0.91,0.54-2.07,0.98-3.45,1.3c-0.59,0.14-1.35,0.25-2.25,0.32c-0.92,0.07-1.85,0.13-2.77,0.18
		s-1.73,0.07-2.43,0.07h-1.05v-0.38c0-0.43-0.02-1.04-0.05-1.83c-0.03-0.78-0.05-1.78-0.05-3.01v-4.56c0-3.12,0.04-5.89,0.12-8.26
		c0.07-2.07,0.15-3.54,0.24-4.37c0.47-0.07,1.13-0.13,1.98-0.19c1.05-0.07,2.08-0.11,3.07-0.11c3.11,0,5.77,0.14,7.93,0.42
		c2.13,0.28,3.6,0.6,4.36,0.96c3.3,1.63,6.89,4.85,10.68,9.58l0.21,0.25l1.34-0.67l-5.09-12.36h-40v1.47l0.35,0.05
		c1.26,0.19,2.3,0.39,3.09,0.6c0.73,0.19,1.43,0.65,2.1,1.36c0.23,0.23,0.42,0.64,0.57,1.2c0.17,0.63,0.28,1.34,0.35,2.11
		c0.07,0.8,0.12,1.66,0.14,2.54c0.03,0.9,0.03,1.78,0.03,2.63v18.03c0,1.42,0,2.82-0.02,4.17l-0.05,3.74
		c-0.02,1.14-0.03,2.05-0.03,2.71c0,0.72-0.02,1.5-0.07,2.29c-0.04,0.75-0.13,1.49-0.25,2.21c-0.12,0.72-0.25,1.33-0.38,1.86
		c-0.13,0.48-0.29,0.85-0.48,1.08c-0.62,0.71-1.42,1.28-2.38,1.68c-0.99,0.41-2.08,0.72-3.22,0.9l-0.16,0.03l-0.17-0.03
		c-2.16-0.32-4.07-1.04-5.67-2.14c-1.61-1.1-3.31-2.9-5.02-5.32c-1.14-1.61-2.43-3.47-3.88-5.56c-1.45-2.08-2.78-4.03-4.02-5.85
		c-0.72-1-1.48-1.93-2.24-2.75c-0.61-0.66-1.26-1.2-1.91-1.61c1.37-0.49,2.68-1.07,3.94-1.74c1.44-0.77,2.73-1.72,3.82-2.81
		c1.09-1.1,1.98-2.38,2.64-3.83c0.66-1.45,0.99-3.11,0.99-4.91c0-2.92-0.67-5.38-1.99-7.32c-1.32-1.93-3.07-3.47-5.2-4.59
		c-2.07-1.11-4.4-1.78-6.91-1.97c-2.46-0.19-5.32-0.28-8.49-0.28h-4.98c-2.05,0-4.1,0.02-6.16,0.05c-2.05,0.04-3.88,0.05-5.48,0.05
		h-3.33v1.47l0.35,0.05c1.26,0.19,2.33,0.41,3.18,0.66c0.8,0.25,1.55,0.72,2.21,1.43c0.23,0.23,0.42,0.64,0.57,1.2
		c0.16,0.62,0.28,1.32,0.35,2.08c0.07,0.76,0.12,1.6,0.14,2.47c0.02,0.87,0.03,1.74,0.03,2.59v18.03c0,1.42-0.01,2.82-0.03,4.17
		l-0.05,3.74c-0.02,1.14-0.02,2.05-0.02,2.71c0,0.76-0.03,1.54-0.08,2.33c-0.04,0.8-0.1,1.55-0.17,2.26
		c-0.07,0.69-0.17,1.32-0.31,1.86c-0.13,0.51-0.29,0.88-0.49,1.13c-0.57,0.7-1.36,1.23-2.38,1.58c-1.07,0.37-2.19,0.65-3.34,0.84
		l-0.34,0.05v1.46h23.55v-1.5l-0.39-0.02c-1.87-0.09-3.34-0.44-4.37-1.05c-1.03-0.6-1.73-1.2-2.07-1.76
		c-0.43-0.65-0.67-1.49-0.72-2.5c-0.05-1.09-0.09-2.4-0.14-3.92c-0.07-1.56-0.1-3.5-0.1-5.76V145c0.48,0.03,0.9,0.05,1.24,0.05
		c0.44,0,1.11,0.09,1.99,0.28c1.16,0.22,2.29,0.79,3.35,1.69c1.09,0.92,2.12,1.94,3.06,3.02c1.18,1.38,2.15,2.55,2.96,3.58
		c0.82,1.07,1.6,2.12,2.3,3.15c0.71,1.04,1.41,2.1,2.1,3.16c0.69,1.07,1.49,2.27,2.4,3.61c0.76,1.09,1.31,1.91,1.67,2.45
		c0.37,0.57,0.67,0.99,0.92,1.28c0.24,0.29,0.46,0.54,0.65,0.76c0.19,0.22,0.51,0.54,0.94,0.98l0.12,0.12h59.07l3.74-14.3
		L412.23,154.42z M344.84,134.26c-0.32,1.14-0.82,2.22-1.47,3.2c-0.66,0.98-1.52,1.87-2.58,2.65c-1.04,0.78-2.32,1.4-3.8,1.86
		c-1.54,0.51-3.14,0.85-4.79,1.01c-1.55,0.16-3.22,0.24-4.99,0.25v-7.44c0-1.94,0.02-3.96,0.05-6.04c0.03-2.1,0.09-3.99,0.15-5.62
		l0.1-2.53c0.02-0.59,0.04-1.04,0.06-1.38c0.02-0.31,0.05-0.57,0.09-0.76c0.03-0.14,0.06-0.3,0.09-0.47c0.29-0.03,0.66-0.07,1.1-0.1
		c0.59-0.05,1.37-0.07,2.38-0.07c1.34,0,2.64,0.12,3.86,0.35c1.21,0.23,2.39,0.6,3.48,1.1c2.19,1.06,3.88,2.49,5.01,4.27
		c1.14,1.78,1.71,3.84,1.71,6.12C345.32,131.91,345.16,133.12,344.84,134.26"/>
	<path d="M311.95,132.75c-1.2-3.17-2.96-6.01-5.22-8.44c-2.27-2.43-5.06-4.4-8.31-5.84c-3.25-1.44-6.97-2.17-11.05-2.17
		c-3.74,0-7.36,0.62-10.75,1.84c-3.39,1.23-6.38,3-8.91,5.29c-2.53,2.29-4.57,5.12-6.06,8.41c-1.49,3.29-2.25,7.05-2.25,11.18
		c0,3.9,0.72,7.51,2.14,10.75c1.42,3.24,3.38,6.07,5.84,8.41c2.45,2.33,5.36,4.16,8.63,5.43c3.26,1.27,6.78,1.92,10.43,1.92
		c3.7,0,7.25-0.66,10.53-1.95c3.3-1.3,6.22-3.18,8.7-5.58c2.47-2.4,4.46-5.27,5.9-8.54c1.44-3.27,2.17-6.88,2.17-10.72
		C313.76,139.28,313.15,135.92,311.95,132.75 M304.1,142.78c0,2.95-0.37,5.93-1.1,8.88c-0.73,2.94-1.83,5.62-3.27,7.97
		c-1.44,2.34-3.26,4.27-5.42,5.76c-2.13,1.46-4.68,2.21-7.58,2.21c-2.91,0-5.49-0.67-7.68-2c-2.2-1.34-4.06-3.15-5.51-5.36
		c-1.47-2.24-2.59-4.85-3.34-7.79c-0.75-2.94-1.13-6.05-1.13-9.24c0-3.05,0.35-6.09,1.02-9.06c0.68-2.96,1.74-5.64,3.17-7.97
		c1.41-2.31,3.24-4.22,5.44-5.68c2.18-1.45,4.81-2.18,7.8-2.18c2.96,0,5.54,0.73,7.7,2.18c2.18,1.45,4.03,3.38,5.49,5.72
		c1.47,2.36,2.58,5.01,3.3,7.9C303.73,137.02,304.1,139.93,304.1,142.78"/>
	<path d="M456.24,141.85c-2.16-2.74-5.22-4.85-9.11-6.28c-1.07-0.4-2.11-0.76-3.1-1.11c-0.99-0.34-1.96-0.66-2.93-0.98
		c-0.95-0.31-1.93-0.63-2.91-0.97c-1-0.35-2.06-0.74-3.16-1.19c-2.81-1.05-5.13-2.47-6.88-4.23c-1.73-1.73-2.59-4.05-2.59-6.93
		c0-1.86,0.32-3.53,0.95-4.97c0.62-1.44,1.5-2.66,2.61-3.63c1.11-0.98,2.43-1.72,3.94-2.21c1.51-0.5,3.13-0.74,4.84-0.74
		c2.13,0,4.1,0.44,5.84,1.32c1.77,0.88,3.36,2.04,4.73,3.44c1.39,1.41,2.62,3.04,3.68,4.84c1.06,1.81,1.93,3.66,2.6,5.49l0.1,0.26
		h1.62v-16.51h-1.55l-0.13,0.18c-0.44,0.66-0.93,1.33-1.46,2.01c-0.43,0.54-0.65,0.75-0.72,0.83c-0.11-0.07-0.33-0.22-0.76-0.53
		c-0.61-0.44-1.5-0.91-2.7-1.44c-1.19-0.52-2.71-1-4.53-1.43c-1.83-0.43-4.07-0.65-6.63-0.65c-2.74,0-5.39,0.37-7.88,1.08
		c-2.5,0.72-4.74,1.84-6.65,3.34c-1.92,1.5-3.48,3.4-4.61,5.65c-1.14,2.25-1.72,4.96-1.72,8.07c0,1.85,0.32,3.62,0.96,5.28
		c0.63,1.64,1.48,3.15,2.52,4.51c1.03,1.36,2.26,2.55,3.65,3.56c1.38,1.01,2.84,1.81,4.33,2.38c1.31,0.51,2.44,0.93,3.37,1.24
		c0.93,0.31,1.83,0.62,2.71,0.93c0.88,0.32,1.83,0.64,2.85,0.98c1.01,0.33,2.2,0.76,3.55,1.27c1.35,0.5,2.61,1.07,3.78,1.68
		c1.15,0.6,2.16,1.33,3,2.17c0.84,0.83,1.51,1.83,1.99,2.97c0.49,1.13,0.73,2.48,0.73,4c0,3.76-1.26,6.78-3.77,8.98
		c-2.52,2.21-5.85,3.33-9.92,3.33c-1.43,0-2.93-0.25-4.46-0.74c-1.55-0.5-2.81-1-3.75-1.5c-0.93-0.5-1.92-1.22-2.93-2.14
		c-1.02-0.94-2-2.05-2.92-3.3c-0.91-1.25-1.78-2.6-2.56-4.03c-0.77-1.4-1.42-2.88-1.92-4.39l-0.09-0.28h-1.55l0.26,17.69h1.37
		l0.12-0.16c0.43-0.6,0.94-1.25,1.51-1.93c0.59-0.7,0.81-0.85,0.79-0.87c0.06,0.01,0.29,0.09,1.02,0.54
		c0.67,0.41,1.68,0.86,2.99,1.35c1.32,0.49,3,0.91,5,1.25c1.99,0.34,4.42,0.51,7.2,0.51c3.24,0,6.27-0.37,9.02-1.12
		c2.75-0.74,5.16-1.91,7.15-3.46c1.99-1.56,3.57-3.46,4.7-5.65c1.13-2.2,1.7-4.71,1.7-7.48C459.5,148.07,458.4,144.6,456.24,141.85"
		/>
	<path d="M49.12,117.18c-1.67-2.53-3.81-4.52-6.34-5.9c-2.58-1.43-5.37-2.35-8.29-2.72c-2.89-0.37-6.25-0.56-9.98-0.56h-3.82
		c-1.47,0-3.04,0.02-4.72,0.04c-3.34,0.06-6.87,0.03-9.76,0.09c-1.44,0.03-2.7,0.04-3.77,0.04H0v1.61l0.35,0.05
		c1.51,0.22,2.94,0.49,4.25,0.8c1.24,0.29,2.27,0.86,3.07,1.72c0.28,0.28,0.52,0.78,0.7,1.47c0.19,0.74,0.34,1.58,0.41,2.48
		c0.09,0.92,0.14,1.92,0.17,2.94c0.03,1.04,0.04,2.07,0.04,3.09v21.47c0,1.7-0.01,3.35-0.04,4.95c-0.03,1.61-0.06,3.1-0.08,4.45
		c-0.03,1.36-0.05,2.44-0.05,3.24c0,0.87-0.03,1.81-0.08,2.77c-0.06,0.95-0.13,1.86-0.21,2.7c-0.09,0.84-0.22,1.59-0.38,2.24
		c-0.16,0.62-0.35,1.07-0.6,1.37c-0.68,0.84-1.64,1.48-2.87,1.91c-1.27,0.44-2.61,0.78-4,1l-0.34,0.05v1.6h27.97v-1.64l-0.39-0.02
		c-2.24-0.11-4.01-0.52-5.25-1.23c-1.23-0.69-2.07-1.39-2.49-2.07c-0.53-0.79-0.82-1.8-0.87-3.02c-0.06-1.3-0.11-2.85-0.17-4.65
		c0-0.97-0.02-1.86-0.04-2.69c-0.03-0.82-0.04-1.7-0.04-2.66v-7.57h4.18c1.75,0,3.57-0.07,5.42-0.21c1.84-0.15,3.69-0.36,5.51-0.64
		c1.83-0.28,3.56-0.72,5.17-1.29c1.54-0.57,3.08-1.34,4.57-2.29c1.49-0.95,2.83-2.1,3.95-3.43c1.13-1.33,2.05-2.87,2.74-4.61
		c0.69-1.73,1.04-3.7,1.04-5.83C51.64,122.77,50.79,119.73,49.12,117.18 M19.06,132.08c0-2.71,0.01-5.48,0.04-8.31
		c0.03-2.89,0.07-5.25,0.13-7.2c0.06-1.29,0.11-2.29,0.17-2.99c0.06-0.69,0.11-1.24,0.17-1.63c0.05-0.37,0.12-0.67,0.19-0.9
		c0.06-0.19,0.12-0.41,0.17-0.66c0.35-0.05,0.78-0.11,1.28-0.17c0.63-0.08,1.54-0.12,2.71-0.12c1.6,0,3.18,0.11,4.69,0.33
		c1.48,0.22,2.9,0.64,4.21,1.24c2.64,1.26,4.79,3.15,6.41,5.63c1.62,2.47,2.44,5.33,2.44,8.51c0,3.46-0.95,6.63-2.82,9.4
		c-1.86,2.77-4.59,4.79-8.12,6c-1.71,0.6-3.59,0.98-5.58,1.12c-1.89,0.13-3.94,0.2-6.1,0.21V132.08z"/>
	<path d="M96.27,168.41c-1.04-0.05-1.94-0.25-2.7-0.6c-0.76-0.36-1.41-0.78-1.93-1.25c-0.53-0.49-0.95-0.95-1.26-1.4
		c-0.32-0.46-0.53-0.78-0.6-0.94l-1.53-3.31c-0.45-0.96-0.94-2.18-1.45-3.65c-1.14-2.99-2.28-6.02-3.42-9.08
		c-1.14-3.07-2.32-6.24-3.53-9.52c-1.21-3.28-2.48-6.69-3.81-10.23c-1.33-3.54-2.73-7.28-4.2-11.22l-0.1-0.26h-1.08l-0.12,0.2
		c-0.19,0.33-0.46,0.75-0.8,1.26c-0.35,0.5-0.77,1.04-1.28,1.59c-0.51,0.56-1.1,1.09-1.76,1.59c-0.66,0.5-1.41,0.94-2.24,1.31
		l-0.37,0.17l0.81,1.77c-1.12,2.62-2.31,5.42-3.56,8.43c-1.29,3.06-2.58,6.11-3.88,9.12l-3.82,8.8c-1.23,2.85-2.34,5.39-3.34,7.62
		c-1.08,2.4-2,4.23-2.75,5.45c-0.75,1.21-1.28,1.98-1.62,2.32c-0.03,0.05-0.26,0.28-1.41,0.97c-0.83,0.49-1.84,0.81-3.01,0.94
		l-0.36,0.04v1.55h15.99v-1.46l-0.35-0.05c-0.62-0.09-1.27-0.2-1.95-0.32c-0.65-0.11-1.26-0.29-1.83-0.54
		c-0.55-0.25-0.99-0.54-1.33-0.9c-0.31-0.33-0.46-0.74-0.46-1.26c0-0.99,0.49-2.76,1.46-5.26c0.67-1.66,1.33-3.31,2-4.94
		c0.63-1.56,1.29-3.2,1.97-4.91h18.4c0.67,1.76,1.31,3.44,1.89,5.07c0.62,1.7,1.16,3.25,1.63,4.66c0.48,1.4,0.85,2.58,1.1,3.53
		c0.25,0.94,0.38,1.61,0.38,1.99c0,0.55-0.18,0.99-0.56,1.35c-0.41,0.39-0.89,0.69-1.43,0.91c-0.57,0.22-1.11,0.39-1.63,0.47
		c-0.71,0.13-0.91,0.14-0.97,0.14h-0.4v1.52h21.62v-1.64L96.27,168.41z M74.14,148.09H57.59l2.94-7.25c0.97-2.4,1.86-4.54,2.67-6.44
		c0.81-1.9,1.48-3.52,2.04-4.85c0.33-0.82,0.62-1.5,0.85-2.04c0.35,0.88,0.77,1.93,1.24,3.14c0.64,1.64,1.36,3.44,2.14,5.42
		c0.79,1.97,1.59,4.03,2.42,6.16C72.66,144.18,73.4,146.14,74.14,148.09"/>
	<polygon points="211.94,55.1 211.94,63.44 165.3,63.44 160.81,55.1 174.36,55.1 231.61,20.07 288.78,55.1 302.28,55.1
		297.82,63.41 251.13,63.41 251.13,55.1 270.74,55.1 231.52,30.61 192.45,55.1 	"/>
	<path d="M231.55,18.06c4.99,0,9.03-4.04,9.03-9.03S236.54,0,231.55,0c-4.99,0-9.03,4.04-9.03,9.03S226.56,18.06,231.55,18.06"/>
	<path d="M171,51.78c4.99,0,9.03-4.04,9.03-9.03s-4.04-9.03-9.03-9.03c-4.99,0-9.03,4.04-9.03,9.03S166.01,51.78,171,51.78"/>
	<path d="M292.16,51.78c4.99,0,9.03-4.04,9.03-9.03s-4.04-9.03-9.03-9.03c-4.99,0-9.03,4.04-9.03,9.03S287.17,51.78,292.16,51.78"/>
	<path d="M231.55,69.57c7.99,0,14.47-6.48,14.47-14.47c0-7.99-6.48-14.47-14.47-14.47c-7.99,0-14.47,6.48-14.47,14.47
		C217.07,63.09,223.56,69.57,231.55,69.57"/>
	<path d="M255.52,134.93c-0.79-2.43-1.86-4.6-3.18-6.46c-1.32-1.85-2.9-3.48-4.67-4.83c-1.78-1.34-3.69-2.46-5.7-3.33
		c-1.53-0.67-3.12-1.18-4.71-1.52c-1.55-0.34-3.15-0.58-4.74-0.72c-1.58-0.14-3.16-0.21-4.73-0.21h-4.56
		c-5.31,0-9.84,0.02-13.59,0.05c-3.75,0.03-6.61,0.05-8.61,0.05h-0.4v1.48l0.36,0.04c1.2,0.14,2.29,0.37,3.26,0.69
		c0.92,0.31,1.72,0.86,2.38,1.66c0.25,0.28,0.43,0.69,0.55,1.23c0.14,0.57,0.25,1.22,0.32,1.94c0.07,0.73,0.1,1.52,0.1,2.35v20.59
		c0,1.42-0.01,2.81-0.03,4.16l-0.05,3.74c-0.02,1.15-0.03,2.05-0.03,2.71c0,0.74-0.02,1.52-0.07,2.33
		c-0.04,0.77-0.11,1.53-0.21,2.25c-0.09,0.69-0.19,1.33-0.31,1.9c-0.13,0.6-0.31,0.88-0.45,1.03c-0.53,0.62-1.33,1.16-2.38,1.61
		c-0.95,0.4-1.94,0.66-2.95,0.82v-0.06l-0.39-0.01c-1.03-0.04-1.94-0.25-2.69-0.6c-0.76-0.36-1.41-0.79-1.92-1.26
		c-0.52-0.48-0.95-0.95-1.26-1.39c-0.4-0.57-0.55-0.82-0.6-0.93l-1.53-3.32c-0.44-0.95-0.93-2.17-1.45-3.65
		c-1.14-2.99-2.27-6.02-3.41-9.08c-1.14-3.06-2.31-6.24-3.53-9.52c-1.21-3.28-2.48-6.69-3.81-10.23c-1.33-3.54-2.73-7.28-4.2-11.23
		l-0.1-0.26h-1.08l-0.12,0.2c-0.19,0.33-0.45,0.75-0.8,1.26c-0.34,0.5-0.77,1.04-1.28,1.59c-0.51,0.55-1.1,1.09-1.76,1.59
		c-0.66,0.5-1.41,0.94-2.23,1.31l-0.37,0.16l0.8,1.78c-1.12,2.62-2.31,5.43-3.56,8.43c-1.28,3.06-2.57,6.1-3.88,9.12l-3.81,8.8
		c-1.23,2.85-2.34,5.39-3.34,7.62c-1.07,2.4-2,4.23-2.75,5.45c-0.74,1.21-1.28,1.98-1.61,2.32c-0.04,0.06-0.26,0.28-1.42,0.97
		c-0.22,0.13-0.49,0.23-0.77,0.35l-0.01,0c-1.14-0.39-2.14-0.88-3.02-1.48c-1.61-1.1-3.3-2.9-5.02-5.32
		c-1.14-1.61-2.43-3.47-3.88-5.56c-1.45-2.09-2.78-4.04-4.02-5.85c-0.72-1.01-1.48-1.94-2.24-2.75c-0.62-0.66-1.26-1.2-1.91-1.61
		c1.36-0.48,2.68-1.07,3.94-1.74c1.45-0.78,2.74-1.72,3.83-2.82c1.09-1.1,1.98-2.39,2.64-3.82c0.66-1.45,1-3.1,1-4.91
		c0-2.92-0.67-5.39-1.99-7.32c-1.32-1.92-3.06-3.47-5.19-4.58c-2.08-1.12-4.4-1.78-6.91-1.97c-2.46-0.19-5.32-0.28-8.49-0.28H112
		c-2.05,0-4.1,0.02-6.15,0.05c-2.05,0.03-3.88,0.05-5.49,0.05h-3.32v1.47l0.35,0.05c1.26,0.19,2.33,0.41,3.18,0.66
		c0.81,0.24,1.55,0.72,2.21,1.43c0.23,0.23,0.42,0.64,0.57,1.2c0.16,0.62,0.28,1.31,0.35,2.08c0.07,0.76,0.12,1.57,0.14,2.46
		c0.02,0.88,0.03,1.74,0.03,2.59v18.03c0,1.42-0.01,2.81-0.03,4.16l-0.05,3.74c-0.02,1.15-0.03,2.05-0.03,2.71
		c0,0.75-0.02,1.53-0.07,2.33c-0.05,0.8-0.11,1.55-0.18,2.26c-0.07,0.7-0.18,1.33-0.31,1.87c-0.12,0.5-0.29,0.88-0.49,1.12
		c-0.56,0.7-1.36,1.23-2.38,1.59c-1.07,0.37-2.2,0.65-3.35,0.83l-0.34,0.06v1.46h23.54v-1.5l-0.38-0.02
		c-1.88-0.09-3.34-0.45-4.37-1.05c-1.03-0.6-1.72-1.19-2.07-1.76c-0.43-0.65-0.67-1.49-0.72-2.5c-0.05-1.09-0.09-2.4-0.14-3.92
		c-0.07-1.55-0.1-3.49-0.1-5.76v-7.62c0.49,0.03,0.9,0.04,1.24,0.04c0.44,0,1.11,0.09,1.99,0.28c1.16,0.22,2.29,0.79,3.34,1.7
		c1.1,0.93,2.13,1.95,3.06,3.01c1.14,1.33,2.13,2.54,2.95,3.59c0.82,1.06,1.6,2.11,2.3,3.15c0.71,1.04,1.41,2.09,2.09,3.16
		c0.69,1.07,1.49,2.27,2.4,3.61c0.76,1.09,1.31,1.91,1.67,2.45c0.37,0.57,0.67,0.99,0.92,1.28c0.24,0.29,0.46,0.55,0.65,0.76
		c0.19,0.22,0.51,0.54,0.94,0.98l0.12,0.12h9.94h0.81v-0.03h3.61v0.03h1.07h0.82h9.31v-1.47l-0.34-0.05
		c-0.62-0.09-1.27-0.2-1.95-0.32c-0.65-0.11-1.27-0.29-1.83-0.54c-0.55-0.24-0.98-0.54-1.33-0.9c-0.31-0.33-0.46-0.74-0.46-1.26
		c0-0.99,0.5-2.76,1.47-5.26c0.66-1.66,1.33-3.31,1.99-4.95c0.63-1.56,1.29-3.2,1.96-4.91h18.38c0.67,1.76,1.3,3.45,1.89,5.07
		c0.61,1.7,1.16,3.25,1.63,4.65c0.47,1.39,0.84,2.58,1.1,3.54c0.25,0.94,0.38,1.61,0.38,1.99c0,0.55-0.18,0.99-0.55,1.34
		c-0.41,0.39-0.89,0.7-1.44,0.91c-0.56,0.23-1.11,0.39-1.63,0.48c-0.7,0.12-0.91,0.14-0.96,0.14h-0.41v1.52h20.84h0.75h25.61
		c2.19,0,4.48-0.16,6.81-0.47c2.33-0.31,4.63-0.86,6.83-1.62c2.2-0.77,4.31-1.82,6.27-3.11c1.98-1.31,3.73-2.97,5.22-4.95
		c1.49-1.97,2.68-4.36,3.54-7.11c0.87-2.74,1.3-5.94,1.3-9.53C256.71,140.18,256.31,137.37,255.52,134.93 M217.04,164.93
		c-0.2-0.56-0.35-1.2-0.44-1.91c-0.09-0.73-0.18-1.48-0.25-2.27c-0.07-0.75-0.11-1.47-0.11-2.15c-0.07-1.56-0.1-3.59-0.1-6.04v-8.34
		c0-5.55,0.03-10.46,0.07-14.6c0.04-3.88,0.18-7.01,0.41-9.3c0.27-0.06,0.6-0.1,0.98-0.14c0.55-0.05,1.14-0.1,1.79-0.18
		c0.64-0.07,1.29-0.12,1.93-0.14c0.66-0.02,1.27-0.03,1.84-0.03c1.63,0,3.03,0.06,4.16,0.18c1.13,0.12,2.17,0.27,3.1,0.46
		c2.4,0.41,4.64,1.35,6.67,2.78c2.04,1.44,3.82,3.22,5.31,5.29c1.48,2.07,2.66,4.42,3.5,6.98c0.84,2.56,1.26,5.23,1.26,7.93
		c0,6.12-1.26,11.34-3.75,15.51c-2.47,4.14-6.26,6.97-11.26,8.4c-1.06,0.32-2.22,0.55-3.44,0.66c-2.58,0.24-4.91,0.28-7.65-0.21
		c-1.35-0.24-2.49-0.81-3.37-1.7C217.45,165.86,217.23,165.47,217.04,164.93 M178.65,148.1h-16.54l2.94-7.25
		c0.97-2.4,1.86-4.54,2.67-6.44c0.81-1.9,1.48-3.52,2.03-4.85c0.33-0.81,0.62-1.49,0.85-2.04c0.36,0.88,0.77,1.93,1.25,3.14
		c0.63,1.64,1.35,3.44,2.13,5.42c0.79,1.98,1.59,4.03,2.42,6.17C177.16,144.19,177.91,146.14,178.65,148.1 M112.41,136.75
		c0-1.94,0.02-3.96,0.05-6.05c0.03-2.02,0.08-3.92,0.15-5.62l0.1-2.52c0.02-0.59,0.04-1.05,0.06-1.38c0.02-0.31,0.06-0.57,0.09-0.77
		c0.03-0.14,0.06-0.3,0.09-0.47c0.29-0.03,0.66-0.06,1.1-0.1c0.59-0.05,1.37-0.07,2.38-0.07c1.35,0,2.65,0.12,3.86,0.35
		c1.21,0.23,2.39,0.6,3.48,1.1c2.19,1.06,3.88,2.49,5.01,4.27c1.13,1.78,1.71,3.84,1.71,6.12c0,1.24-0.16,2.45-0.48,3.59
		c-0.32,1.14-0.81,2.22-1.48,3.2c-0.66,0.98-1.52,1.87-2.57,2.65c-1.05,0.78-2.33,1.4-3.79,1.86c-1.54,0.51-3.15,0.85-4.79,1.01
		c-1.55,0.15-3.24,0.23-4.99,0.25V136.75z"/>
</g>
</svg>
