<?xml version="1.0" standalone="no"?>
<!DOCTYPE svg PUBLIC "-//W3C//DTD SVG 20010904//EN"
 "http://www.w3.org/TR/2001/REC-SVG-20010904/DTD/svg10.dtd">
<svg version="1.0" xmlns="http://www.w3.org/2000/svg"
 width="330.000000pt" height="300.000000pt" viewBox="0 0 330.000000 300.000000"
 preserveAspectRatio="xMidYMid meet">

<g transform="translate(0.000000,300.000000) scale(0.100000,-0.100000)"
fill="#000000" stroke="none">
<path d="M674 2909 c-138 -23 -264 -90 -375 -199 -61 -61 -85 -94 -123 -170
-79 -161 -76 -101 -76 -1303 0 -1191 -5 -1114 69 -1155 42 -24 96 -28 133 -11
13 5 115 107 228 224 l205 215 946 0 c908 0 949 1 1023 20 240 61 431 252 502
500 17 61 18 126 22 978 l3 912 -1253 -1 c-689 -1 -1276 -5 -1304 -10z m2304
-1021 l-3 -793 -23 -57 c-51 -126 -150 -222 -280 -272 -57 -21 -61 -21 -1052
-24 l-995 -2 -142 -148 -142 -147 0 921 c-1 908 -1 923 20 990 46 150 152 258
297 305 54 17 119 18 1190 18 l1133 1 -3 -792z"/>
<path d="M1530 2384 c-164 -43 -273 -143 -310 -282 -15 -58 -6 -80 38 -91 57
-15 183 -30 198 -24 7 3 18 21 23 40 23 81 91 133 176 133 111 0 180 -82 146
-174 -11 -28 -63 -81 -168 -173 -91 -80 -106 -119 -107 -283 l-1 -115 115 -3
c140 -3 140 -3 140 113 0 75 3 86 29 122 16 22 42 50 57 62 68 52 172 164 194
208 35 68 38 160 10 235 -26 71 -99 154 -167 191 -100 54 -258 71 -373 41z"/>
<path d="M1605 1230 c-72 -30 -106 -133 -66 -198 41 -65 114 -88 185 -58 39
16 63 46 77 99 13 50 -16 118 -63 147 -34 21 -97 26 -133 10z"/>
</g>
</svg>
