<?xml version="1.0" encoding="utf-8"?>
<!-- Generator: Adobe Illustrator 17.0.0, SVG Export Plug-In . SVG Version: 6.00 Build 0)  -->
<!DOCTYPE svg PUBLIC "-//W3C//DTD SVG 1.1//EN" "http://www.w3.org/Graphics/SVG/1.1/DTD/svg11.dtd">
<svg version="1.1" xmlns="http://www.w3.org/2000/svg" xmlns:xlink="http://www.w3.org/1999/xlink" x="0px" y="0px" width="676px"
	 height="540px" viewBox="0 0 676 540" enable-background="new 0 0 676 540" xml:space="preserve">
<g id="negro" display="none">
	<g display="inline">
		<path fill="#1D1D1B" d="M448.073,166.715c-7.913-11.966-17.987-21.345-29.931-27.872c-12.212-6.766-25.387-11.087-39.187-12.845
			c-13.663-1.748-29.526-2.627-47.162-2.627h-18.045c-6.955,0-14.379,0.083-22.286,0.206c-15.783,0.26-32.478,0.119-46.123,0.409
			c-6.792,0.119-12.741,0.177-17.799,0.177h-11.539v7.588l1.628,0.246c7.161,1.057,13.906,2.323,20.104,3.77
			c5.873,1.368,10.747,4.078,14.521,8.116c1.346,1.324,2.446,3.665,3.304,6.929c0.919,3.513,1.592,7.465,1.954,11.724
			c0.409,4.364,0.651,9.053,0.8,13.906c0.141,4.936,0.199,9.791,0.199,14.578v101.42c0,8.011-0.058,15.823-0.199,23.411
			c-0.148,7.62-0.268,14.658-0.391,21.041c-0.141,6.437-0.224,11.539-0.224,15.291c0,4.118-0.123,8.536-0.391,13.106
			c-0.26,4.505-0.608,8.767-0.977,12.744c-0.405,3.977-1.021,7.53-1.769,10.562c-0.738,2.913-1.672,5.08-2.855,6.47
			c-3.224,3.973-7.772,7.012-13.562,9.031c-5.992,2.073-12.353,3.665-18.921,4.729l-1.607,0.242v7.562h132.14v-7.747l-1.835-0.08
			c-10.602-0.532-18.942-2.464-24.811-5.793c-5.811-3.282-9.77-6.567-11.767-9.784c-2.486-3.712-3.854-8.529-4.096-14.271
			c-0.268-6.137-0.532-13.482-0.799-21.96c0-4.57-0.08-8.807-0.199-12.704c-0.148-3.857-0.206-8.033-0.206-12.563v-35.761h19.756
			c8.261,0,16.88-0.347,25.589-0.999c8.706-0.695,17.451-1.693,26.016-3.04c8.666-1.346,16.84-3.401,24.428-6.115
			c7.28-2.67,14.535-6.318,21.613-10.808c7.056-4.465,13.352-9.911,18.678-16.21c5.319-6.278,9.683-13.58,12.95-21.775
			c3.278-8.192,4.928-17.473,4.928-27.569C459.999,193.125,455.983,178.75,448.073,166.715 M306.041,237.121
			c0-12.802,0.058-25.911,0.206-39.267c0.119-13.663,0.326-24.793,0.586-34.009c0.264-6.119,0.532-10.83,0.799-14.152
			c0.286-3.282,0.529-5.873,0.793-7.707c0.242-1.758,0.55-3.18,0.915-4.259c0.307-0.919,0.59-1.961,0.818-3.123
			c1.672-0.228,3.669-0.51,6.036-0.818c2.996-0.387,7.28-0.572,12.784-0.572c7.566,0,15.027,0.532,22.181,1.574
			c7.02,1.038,13.706,3.018,19.905,5.851c12.455,5.956,22.655,14.904,30.297,26.592c7.667,11.658,11.521,25.177,11.521,40.222
			c0,16.355-4.465,31.324-13.312,44.43c-8.811,13.091-21.696,22.611-38.351,28.336c-8.076,2.862-16.945,4.653-26.346,5.305
			c-8.912,0.615-18.595,0.962-28.831,1.006V237.121z"/>
	</g>
	<g display="inline">
		<path fill="none" stroke="#1D1D1B" stroke-width="50" stroke-miterlimit="10" d="M338.011,514.3
			c134.923,0,244.288-109.364,244.288-244.288C582.3,135.066,472.934,25.7,338.011,25.7C203.066,25.7,93.7,135.066,93.7,270.011
			C93.7,404.936,203.066,514.3,338.011,514.3"/>
	</g>
</g>
<g id="blanco">
	<g>
		<path fill="#FFFFFF" d="M448.073,166.715c-7.913-11.966-17.987-21.345-29.931-27.872c-12.212-6.766-25.387-11.087-39.187-12.845
			c-13.663-1.748-29.526-2.627-47.162-2.627h-18.045c-6.955,0-14.379,0.083-22.286,0.206c-15.783,0.26-32.478,0.119-46.123,0.409
			c-6.792,0.119-12.741,0.177-17.799,0.177h-11.539v7.588l1.628,0.246c7.161,1.057,13.906,2.323,20.104,3.77
			c5.873,1.368,10.747,4.078,14.521,8.116c1.346,1.324,2.446,3.665,3.304,6.929c0.919,3.513,1.592,7.465,1.954,11.724
			c0.409,4.364,0.651,9.053,0.8,13.906c0.141,4.936,0.199,9.791,0.199,14.578v101.42c0,8.011-0.058,15.823-0.199,23.411
			c-0.148,7.62-0.268,14.658-0.391,21.041c-0.141,6.437-0.224,11.539-0.224,15.291c0,4.118-0.123,8.536-0.391,13.106
			c-0.26,4.505-0.608,8.767-0.977,12.744c-0.405,3.977-1.021,7.53-1.769,10.562c-0.738,2.913-1.672,5.08-2.855,6.47
			c-3.224,3.973-7.772,7.012-13.562,9.031c-5.992,2.073-12.353,3.665-18.921,4.729l-1.607,0.242v7.562h132.14v-7.747l-1.835-0.08
			c-10.602-0.532-18.942-2.464-24.811-5.793c-5.811-3.282-9.77-6.567-11.767-9.784c-2.486-3.712-3.854-8.529-4.096-14.271
			c-0.268-6.137-0.532-13.482-0.799-21.96c0-4.57-0.08-8.807-0.199-12.704c-0.148-3.857-0.206-8.033-0.206-12.563v-35.761h19.756
			c8.261,0,16.88-0.347,25.589-0.999c8.706-0.695,17.451-1.693,26.016-3.04c8.666-1.346,16.84-3.401,24.428-6.115
			c7.28-2.67,14.535-6.318,21.613-10.808c7.056-4.465,13.352-9.911,18.678-16.21c5.319-6.278,9.683-13.58,12.95-21.775
			c3.278-8.192,4.928-17.473,4.928-27.569C459.999,193.125,455.983,178.75,448.073,166.715 M306.041,237.121
			c0-12.802,0.058-25.911,0.206-39.267c0.119-13.663,0.326-24.793,0.586-34.009c0.264-6.119,0.532-10.83,0.799-14.152
			c0.286-3.282,0.529-5.873,0.793-7.707c0.242-1.758,0.55-3.18,0.915-4.259c0.307-0.919,0.59-1.961,0.818-3.123
			c1.672-0.228,3.669-0.51,6.036-0.818c2.996-0.387,7.28-0.572,12.784-0.572c7.566,0,15.027,0.532,22.181,1.574
			c7.02,1.038,13.706,3.018,19.905,5.851c12.455,5.956,22.655,14.904,30.297,26.592c7.667,11.658,11.521,25.177,11.521,40.222
			c0,16.355-4.465,31.324-13.312,44.43c-8.811,13.091-21.696,22.611-38.351,28.336c-8.076,2.862-16.945,4.653-26.346,5.305
			c-8.912,0.615-18.595,0.962-28.831,1.006V237.121z"/>
	</g>
	<g>
		<path fill="none" stroke="#FFFFFF" stroke-width="50" stroke-miterlimit="10" d="M338.011,514.3
			c134.923,0,244.288-109.364,244.288-244.288C582.3,135.066,472.934,25.7,338.011,25.7C203.066,25.7,93.7,135.066,93.7,270.011
			C93.7,404.936,203.066,514.3,338.011,514.3"/>
	</g>
</g>
<g id="rosa" display="none">
	<g display="inline">
		<path fill="#F01E50" d="M448.073,166.715c-7.913-11.966-17.987-21.345-29.931-27.872c-12.212-6.766-25.387-11.087-39.187-12.845
			c-13.663-1.748-29.526-2.627-47.162-2.627h-18.045c-6.955,0-14.379,0.083-22.286,0.206c-15.783,0.26-32.478,0.119-46.123,0.409
			c-6.792,0.119-12.741,0.177-17.799,0.177h-11.539v7.588l1.628,0.246c7.161,1.057,13.906,2.323,20.104,3.77
			c5.873,1.368,10.747,4.078,14.521,8.116c1.346,1.324,2.446,3.665,3.304,6.929c0.919,3.513,1.592,7.465,1.954,11.724
			c0.409,4.364,0.651,9.053,0.8,13.906c0.141,4.936,0.199,9.791,0.199,14.578v101.42c0,8.011-0.058,15.823-0.199,23.411
			c-0.148,7.62-0.268,14.658-0.391,21.041c-0.141,6.437-0.224,11.539-0.224,15.291c0,4.118-0.123,8.536-0.391,13.106
			c-0.26,4.505-0.608,8.767-0.977,12.744c-0.405,3.977-1.021,7.53-1.769,10.562c-0.738,2.913-1.672,5.08-2.855,6.47
			c-3.224,3.973-7.772,7.012-13.562,9.031c-5.992,2.073-12.353,3.665-18.921,4.729l-1.607,0.242v7.562h132.14v-7.747l-1.835-0.08
			c-10.602-0.532-18.942-2.464-24.811-5.793c-5.811-3.282-9.77-6.567-11.767-9.784c-2.486-3.712-3.854-8.529-4.096-14.271
			c-0.268-6.137-0.532-13.482-0.799-21.96c0-4.57-0.08-8.807-0.199-12.704c-0.148-3.857-0.206-8.033-0.206-12.563v-35.761h19.756
			c8.261,0,16.88-0.347,25.589-0.999c8.706-0.695,17.451-1.693,26.016-3.04c8.666-1.346,16.84-3.401,24.428-6.115
			c7.28-2.67,14.535-6.318,21.613-10.808c7.056-4.465,13.352-9.911,18.678-16.21c5.319-6.278,9.683-13.58,12.95-21.775
			c3.278-8.192,4.928-17.473,4.928-27.569C459.999,193.125,455.983,178.75,448.073,166.715 M306.041,237.121
			c0-12.802,0.058-25.911,0.206-39.267c0.119-13.663,0.326-24.793,0.586-34.009c0.264-6.119,0.532-10.83,0.799-14.152
			c0.286-3.282,0.529-5.873,0.793-7.707c0.242-1.758,0.55-3.18,0.915-4.259c0.307-0.919,0.59-1.961,0.818-3.123
			c1.672-0.228,3.669-0.51,6.036-0.818c2.996-0.387,7.28-0.572,12.784-0.572c7.566,0,15.027,0.532,22.181,1.574
			c7.02,1.038,13.706,3.018,19.905,5.851c12.455,5.956,22.655,14.904,30.297,26.592c7.667,11.658,11.521,25.177,11.521,40.222
			c0,16.355-4.465,31.324-13.312,44.43c-8.811,13.091-21.696,22.611-38.351,28.336c-8.076,2.862-16.945,4.653-26.346,5.305
			c-8.912,0.615-18.595,0.962-28.831,1.006V237.121z"/>
	</g>
	<g display="inline">
		<path fill="none" stroke="#F01E50" stroke-width="50" stroke-miterlimit="10" d="M338.011,514.3
			c134.923,0,244.288-109.364,244.288-244.288C582.3,135.066,472.934,25.7,338.011,25.7C203.066,25.7,93.7,135.066,93.7,270.011
			C93.7,404.936,203.066,514.3,338.011,514.3"/>
	</g>
</g>
</svg>
